<svg width="50" height="50" viewBox="0 0 50 50" fill="none" xmlns="http://www.w3.org/2000/svg">
<path fill-rule="evenodd" clip-rule="evenodd" d="M4.16667 10.4167H45.8333V14.0915L25 24.5082L4.16667 14.0915V10.4167ZM0 16.6667V10.4167C0 8.11548 1.86548 6.25 4.16667 6.25H45.8333C48.1345 6.25 50 8.11548 50 10.4167V16.6667V37.5C50 40.9518 47.2018 43.75 43.75 43.75H6.25C2.79822 43.75 0 40.9518 0 37.5V16.6667ZM45.8333 18.75V37.5C45.8333 38.6506 44.9006 39.5833 43.75 39.5833H6.25C5.09941 39.5833 4.16667 38.6506 4.16667 37.5V18.75L25 29.1667L45.8333 18.75Z" fill="#262626"/>
</svg>
