<svg width="56" height="43" viewBox="0 0 56 43" fill="none" xmlns="http://www.w3.org/2000/svg">
<path d="M8.61543 30.7727H8.36233L8.21248 30.9767L0.5 41.4749V0.5H0.524612H0.552762H0.581615H0.61117H0.641423H0.672372H0.704015H0.736349H0.769372H0.803081H0.837473H0.872548H0.908301H0.94473H0.981834H1.01961H1.05805H1.09716H1.13694H1.17738H1.21847H1.26022H1.30263H1.34569H1.3894H1.43375H1.47875H1.5244H1.57068H1.6176H1.66515H1.71334H1.76215H1.8116H1.86167H1.91236H1.96367H2.0156H2.06814H2.1213H2.17506H2.22944H2.28442H2.34H2.39618H2.45296H2.51034H2.56831H2.62687H2.68601H2.74575H2.80606H2.86696H2.92844H2.99049H3.05311H3.11631H3.18008H3.24441H3.3093H3.37476H3.44077H3.50734H3.57446H3.64214H3.71036H3.77913H3.84845H3.91831H3.9887H4.05963H4.1311H4.2031H4.27562H4.34868H4.42226H4.49636H4.57097H4.64611H4.72176H4.79793H4.8746H4.95178H5.02946H5.10765H5.18634H5.26552H5.3452H5.42537H5.50603H5.58718H5.66881H5.75093H5.83353H5.9166H6.00015H6.08417H6.16867H6.25363H6.33905H6.42494H6.51129H6.5981H6.68536H6.77308H6.86125H6.94986H7.03893H7.12843H7.21838H7.30876H7.39958H7.49083H7.58252H7.67463H7.76717H7.86014H7.95352H8.04733H8.14155H8.23618H8.33123H8.42668H8.52254H8.61881H8.71547H8.81254H8.91H9.00786H9.10611H9.20475H9.30377H9.40318H9.50297H9.60315H9.70369H9.80462H9.90591H10.0076H10.1096H10.212H10.3148H10.4179H10.5214H10.6252H10.7294H10.8339H10.9388H11.044H11.1496H11.2555H11.3618H11.4683H11.5753H11.6825H11.7901H11.898H12.0062H12.1148H12.2236H12.3328H12.4423H12.5521H12.6622H12.7726H12.8834H12.9944H13.1057H13.2173H13.3292H13.4414H13.5539H13.6667H13.7798H13.8931H14.0067H14.1206H14.2348H14.3492H14.464H14.5789H14.6942H14.8097H14.9254H15.0415H15.1577H15.2743H15.3911H15.5081H15.6254H15.7429H15.8606H15.9786H16.0968H16.2153H16.334H16.4529H16.572H16.6914H16.811H16.9308H17.0508H17.171H17.2915H17.4121H17.5329H17.654H17.7753H17.8967H18.0184H18.1402H18.2622H18.3845H18.5069H18.6294H18.7522H18.8752H18.9983H19.1216H19.2451H19.3687H19.4925H19.6165H19.7406H19.8649H19.9893H20.1139H20.2387H20.3636H20.4886H20.6138H20.7391H20.8646H20.9902H21.1159H21.2418H21.3678H21.4939H21.6202H21.7466H21.8731H21.9997H22.1264H22.2532H22.3802H22.5072H22.6344H22.7617H22.889H23.0165H23.144H23.2717H23.3994H23.5272H23.6552H23.7831H23.9112H24.0394H24.1676H24.2959H24.4243H24.5527H24.6812H24.8098H24.9384H25.0671H25.1958H25.3246H25.4535H25.5824H25.7113H25.8403H25.9693H26.0984H26.2275H26.3566H26.4858H26.6149H26.7442H26.8734H27.0027H27.1319H27.2612H27.3906H27.5199H27.6492H27.7786H27.9079H28.0372H28.1666H28.2959H28.4253H28.5546H28.6839H28.8132H28.9425H29.0718H29.201H29.3303H29.4595H29.5886H29.7178H29.8469H29.976H30.105H30.234H30.363H30.4919H30.6207H30.7496H30.8783H31.007H31.1357H31.2643H31.3928H31.5213H31.6497H31.778H31.9063H32.0344H32.1625H32.2906H32.4185H32.5464H32.6741H32.8018H32.9294H33.0569H33.1843H33.3116H33.4388H33.5659H33.6929H33.8198H33.9466H34.0733H34.1998H34.3262H34.4525H34.5787H34.7048H34.8307H34.9565H35.0822H35.2077H35.3331H35.4583H35.5834H35.7084H35.8332H35.9579H36.0824H36.2067H36.3309H36.455H36.5788H36.7025H36.8261H36.9495H37.0727H37.1957H37.3185H37.4412H37.5637H37.686H37.8081H37.93H38.0517H38.1733H38.2946H38.4158H38.5367H38.6574H38.778H38.8983H39.0184H39.1383H39.2579H39.3774H39.4966H39.6157H39.7344H39.853H39.9713H40.0894H40.2073H40.3249H40.4422H40.5594H40.6763H40.7929H40.9093H41.0254H41.1413H41.2569H41.3723H41.4874H41.6022H41.7167H41.831H41.9451H42.0588H42.1723H42.2854H42.3983H42.511H42.6233H42.7353H42.8471H42.9585H43.0697H43.1805H43.2911H43.4013H43.5112H43.6209H43.7302H43.8392H43.9479H44.0562H44.1643H44.272H44.3794H44.4864H44.5931H44.6995H44.8056H44.9113H45.0167H45.1217H45.2264H45.3307H45.4347H45.5383H45.6416H45.7445H45.8471H45.9493H46.0511H46.1526H46.2536H46.3543H46.4547H46.5546H46.6542H46.7534H46.8522H46.9506H47.0486H47.1463H47.2435H47.3404H47.4368H47.5328H47.6284H47.7237H47.8185H47.9129H48.0069H48.1004H48.1936H48.2863H48.3786H48.4705H48.5619H48.6529H48.7435H48.8336H48.9233H49.0126H49.1014H49.1897H49.2776H49.3651H49.4521H49.5386C52.878 0.5 55.5 2.94589 55.5 5.86375V25.4092C55.5 28.3267 52.878 30.7727 49.5386 30.7727H49.4625H49.386H49.3092H49.232H49.1545H49.0767H48.9986H48.9201H48.8412H48.7621H48.6826H48.6028H48.5227H48.4423H48.3616H48.2805H48.1991H48.1175H48.0355H47.9532H47.8706H47.7877H47.7045H47.621H47.5372H47.4531H47.3687H47.284H47.199H47.1138H47.0282H46.9424H46.8563H46.7699H46.6833H46.5963H46.5091H46.4216H46.3339H46.2458H46.1575H46.069H45.9802H45.8911H45.8017H45.7122H45.6223H45.5322H45.4418H45.3512H45.2604H45.1693H45.078H44.9864H44.8946H44.8025H44.7102H44.6177H44.5249H44.4319H44.3387H44.2453H44.1516H44.0577H43.9636H43.8693H43.7747H43.68H43.585H43.4898H43.3945H43.2989H43.2031H43.107H43.0108H42.9144H42.8178H42.721H42.6241H42.5269H42.4295H42.3319H42.2342H42.1363H42.0382H41.9399H41.8414H41.7428H41.6439H41.5449H41.4458H41.3465H41.247H41.1473H41.0475H40.9475H40.8473H40.747H40.6466H40.546H40.4452H40.3443H40.2433H40.1421H40.0407H39.9392H39.8376H39.7358H39.6339H39.5319H39.4297H39.3274H39.225H39.1225H39.0198H38.917H38.8141H38.7111H38.6079H38.5046H38.4013H38.2978H38.1942H38.0905H37.9866H37.8827H37.7787H37.6746H37.5704H37.4661H37.3617H37.2572H37.1526H37.0479H36.9432H36.8383H36.7334H36.6284H36.5233H36.4182H36.313H36.2077H36.1023H35.9968H35.8913H35.7858H35.6801H35.5744H35.4687H35.3629H35.257H35.1511H35.0451H34.9391H34.833H34.7269H34.6207H34.5145H34.4083H34.302H34.1957H34.0893H33.983H33.8765H33.7701H33.6636H33.5572H33.4506H33.3441H33.2376H33.131H33.0244H32.9178H32.8112H32.7046H32.598H32.4913H32.3847H32.2781H32.1714H32.0648H31.9582H31.8516H31.745H31.6384H31.5318H31.4252H31.3186H31.2121H31.1056H30.9991H30.8926H30.7861H30.6797H30.5733H30.467H30.3606H30.2543H30.1481H30.0419H29.9357H29.8295H29.7235H29.6174H29.5114H29.4055H29.2996H29.1937H29.088H28.9822H28.8766H28.771H28.6654H28.56H28.4546H28.3492H28.244H28.1388H28.0337H27.9286H27.8237H27.7188H27.614H27.5093H27.4047H27.3001H27.1957H27.0913H26.9871H26.8829H26.7789H26.6749H26.5711H26.4673H26.3637H26.2601H26.1567H26.0534H25.9502H25.8471H25.7441H25.6413H25.5385H25.4359H25.3335H25.2311H25.1289H25.0268H24.9248H24.823H24.7213H24.6198H24.5184H24.4171H24.316H24.215H24.1142H24.0135H23.913H23.8126H23.7124H23.6123H23.5125H23.4127H23.3132H23.2137H23.1145H23.0154H22.9165H22.8178H22.7193H22.6209H22.5227H22.4247H22.3269H22.2292H22.1318H22.0345H21.9374H21.8406H21.7439H21.6474H21.5511H21.455H21.3591H21.2634H21.1679H21.0727H20.9776H20.8827H20.7881H20.6937H20.5995H20.5055H20.4117H20.3182H20.2249H20.1318H20.0389H19.9463H19.8539H19.7617H19.6698H19.5781H19.4867H19.3955H19.3045H19.2138H19.1233H19.0331H18.9432H18.8535H18.764H18.6748H18.5859H18.4972H18.4088H18.3207H18.2328H18.1452H18.0578H17.9708H17.884H17.7975H17.7112H17.6253H17.5396H17.4542H17.3692H17.2843H17.1998H17.1156H17.0317H16.948H16.8647H16.7817H16.6989H16.6165H16.5344H16.4526H16.371H16.2899H16.209H16.1284H16.0482H15.9682H15.8886H15.8093H15.7304H15.6517H15.5734H15.4955H15.4178H15.3405H15.2635H15.1869H15.1106H15.0347H14.9591H14.8838H14.8089H14.7343H14.6601H14.5863H14.5128H14.4396H14.3668H14.2944H14.2224H14.1507H14.0793H14.0084H13.9378H13.8676H13.7978H13.7283H13.6592H13.5905H13.5222H13.4543H13.3867H13.3196H13.2528H13.1864H13.1204H13.0549H12.9897H12.9249H12.8605H12.7965H12.7329H12.6698H12.607H12.5447H12.4827H12.4212H12.3601H12.2994H12.2392H12.1793H12.1199H12.0609H12.0024H11.9442H11.8865H11.8293H11.7725H11.7161H11.6601H11.6046H11.5496H11.4949H11.4408H11.3871H11.3338H11.281H11.2286H11.1767H11.1253H11.0743H11.0238H10.9738H10.9242H10.8751H10.8264H10.7782H10.7306H10.6833H10.6366H10.5903H10.5446H10.4993H10.4545H10.4102H10.3663H10.323H10.2802H10.2378H10.196H10.1546H10.1138H10.0734H10.0336H9.99426H9.95544H9.91714H9.87934H9.84206H9.8053H9.76906H9.73333H9.69813H9.66346H9.62931H9.59569H9.5626H9.53004H9.49802H9.46653H9.43558H9.40517H9.37531H9.34598H9.31721H9.28898H9.2613H9.23417H9.20759H9.18157H9.15611H9.13121H9.10687H9.08309H9.05988H9.03723H9.01515H8.99365H8.97271H8.95235H8.93257H8.91337H8.89474H8.8767H8.85924H8.84237H8.82609H8.8104H8.79529H8.78079H8.76688H8.75356H8.74085H8.72873H8.71723H8.70632H8.69602H8.68634H8.67726H8.6688H8.66095H8.65372H8.6471H8.64111H8.63574H8.63099H8.62688H8.62339H8.62053H8.6183H8.6167H8.61575C8.61553 30.7727 8.61543 30.7727 8.61543 31.2727V30.7727Z" stroke="#8ECAE6"/>
</svg>
