<svg width="55" height="43" viewBox="0 0 55 43" fill="none" xmlns="http://www.w3.org/2000/svg">
<path d="M8.46158 30.7727H8.20578L8.05611 30.9801L0.5 41.4525V0.5H0.515244H0.542891H0.571229H0.600256H0.629969H0.660365H0.691443H0.7232H0.755633H0.78874H0.822519H0.856966H0.892081H0.92786H0.964301H1.0014H1.03916H1.07757H1.11664H1.15635H1.19671H1.23772H1.27937H1.32166H1.36459H1.40815H1.45235H1.49718H1.54263H1.58871H1.63542H1.68274H1.73069H1.77925H1.82842H1.87821H1.9286H1.9796H2.03121H2.08342H2.13622H2.18963H2.24362H2.29821H2.35339H2.40916H2.46551H2.52244H2.57996H2.63805H2.69672H2.75596H2.81577H2.87614H2.93709H2.9986H3.06066H3.12329H3.18647H3.25021H3.31449H3.37933H3.44471H3.51063H3.5771H3.64411H3.71165H3.77973H3.84834H3.91747H3.98714H4.05733H4.12804H4.19927H4.27102H4.34329H4.41606H4.48935H4.56315H4.63745H4.71225H4.78755H4.86335H4.93965H5.01644H5.09372H5.17149H5.24975H5.32849H5.40771H5.48741H5.56758H5.64824H5.72936H5.81095H5.89301H5.97553H6.05851H6.14196H6.22586H6.31021H6.39502H6.48028H6.56598H6.65213H6.73873H6.82576H6.91323H7.00114H7.08948H7.17825H7.26745H7.35707H7.44712H7.53759H7.62847H7.71978H7.81149H7.90362H7.99616H8.08911H8.18245H8.2762H8.37035H8.4649H8.55984H8.65517H8.7509H8.847H8.9435H9.04038H9.13763H9.23527H9.33328H9.43166H9.53041H9.62954H9.72902H9.82887H9.92908H10.0297H10.1306H10.2319H10.3335H10.4355H10.5378H10.6405H10.7435H10.8468H10.9505H11.0545H11.1589H11.2636H11.3686H11.4739H11.5796H11.6855H11.7918H11.8984H12.0053H12.1126H12.2201H12.328H12.4361H12.5445H12.6533H12.7623H12.8717H12.9813H13.0912H13.2014H13.3119H13.4226H13.5337H13.645H13.7566H13.8685H13.9806H14.093H14.2057H14.3186H14.4318H14.5452H14.6589H14.7729H14.8871H15.0015H15.1162H15.2312H15.3463H15.4617H15.5774H15.6933H15.8094H15.9257H16.0423H16.1591H16.2761H16.3933H16.5108H16.6284H16.7463H16.8644H16.9827H17.1012H17.2199H17.3388H17.4578H17.5771H17.6966H17.8163H17.9361H18.0562H18.1764H18.2968H18.4174H18.5381H18.659H18.7801H18.9014H19.0228H19.1444H19.2662H19.3881H19.5102H19.6324H19.7547H19.8773H19.9999H20.1227H20.2457H20.3688H20.492H20.6154H20.7389H20.8625H20.9863H21.1101H21.2341H21.3582H21.4825H21.6068H21.7313H21.8559H21.9805H22.1053H22.2302H22.3552H22.4803H22.6055H22.7308H22.8561H22.9816H23.1071H23.2327H23.3585H23.4842H23.6101H23.736H23.862H23.9881H24.1143H24.2405H24.3667H24.4931H24.6195H24.7459H24.8724H24.9989H25.1255H25.2522H25.3788H25.5056H25.6323H25.7591H25.8859H26.0128H26.1397H26.2666H26.3935H26.5205H26.6474H26.7744H26.9014H27.0285H27.1555H27.2825H27.4095H27.5366H27.6636H27.7906H27.9177H28.0447H28.1717H28.2987H28.4257H28.5526H28.6796H28.8065H28.9334H29.0603H29.1871H29.3139H29.4407H29.5674H29.6941H29.8208H29.9474H30.0739H30.2005H30.3269H30.4533H30.5797H30.706H30.8322H30.9584H31.0845H31.2105H31.3365H31.4624H31.5882H31.714H31.8396H31.9652H32.0907H32.2161H32.3414H32.4666H32.5918H32.7168H32.8417H32.9666H33.0913H33.2159H33.3404H33.4648H33.5891H33.7133H33.8373H33.9612H34.085H34.2087H34.3323H34.4557H34.579H34.7021H34.8251H34.948H35.0707H35.1933H35.3158H35.438H35.5602H35.6822H35.804H35.9256H36.0471H36.1685H36.2896H36.4106H36.5315H36.6521H36.7726H36.8929H37.013H37.1329H37.2527H37.3722H37.4916H37.6108H37.7298H37.8485H37.9671H38.0855H38.2037H38.3216H38.4394H38.5569H38.6742H38.7913H38.9082H39.0249H39.1413H39.2575H39.3735H39.4893H39.6048H39.7201H39.8351H39.9499H40.0645H40.1788H40.2928H40.4066H40.5202H40.6335H40.7465H40.8593H40.9718H41.0841H41.196H41.3077H41.4192H41.5303H41.6412H41.7518H41.8621H41.9722H42.0819H42.1914H42.3006H42.4094H42.518H42.6263H42.7342H42.8419H42.9493H43.0563H43.1631H43.2695H43.3756H43.4814H43.5869H43.692H43.7968H43.9013H44.0055H44.1093H44.2128H44.316H44.4188H44.5213H44.6234H44.7252H44.8266H44.9277H45.0284H45.1288H45.2288H45.3284H45.4277H45.5266H45.6251H45.7233H45.8211H45.9185H46.0156H46.1122H46.2085H46.3044H46.3999H46.495H46.5897H46.684H46.7779H46.8715H46.9646H47.0573H47.1496H47.2415H47.333H47.424H47.5147H47.6049H47.6947H47.7841H47.8731H47.9616H48.0497H48.1373H48.2245H48.3113H48.3977H48.4836H48.569H48.654C51.9209 0.5 54.5 2.9378 54.5 5.86375V25.4092C54.5 28.3348 51.9209 30.7727 48.654 30.7727H48.5792H48.5041H48.4287H48.3529H48.2768H48.2003H48.1236H48.0465H47.9691H47.8914H47.8133H47.7349H47.6563H47.5773H47.498H47.4184H47.3384H47.2582H47.1777H47.0969H47.0158H46.9343H46.8526H46.7706H46.6883H46.6057H46.5228H46.4397H46.3562H46.2725H46.1884H46.1042H46.0196H45.9347H45.8496H45.7642H45.6786H45.5927H45.5065H45.42H45.3333H45.2463H45.1591H45.0716H44.9839H44.8959H44.8076H44.7191H44.6304H44.5414H44.4522H44.3627H44.273H44.1831H44.0929H44.0025H43.9118H43.8209H43.7298H43.6385H43.547H43.4552H43.3632H43.271H43.1786H43.0859H42.9931H42.9H42.8067H42.7132H42.6196H42.5257H42.4316H42.3373H42.2428H42.1481H42.0532H41.9582H41.8629H41.7675H41.6718H41.576H41.48H41.3838H41.2875H41.1909H41.0942H40.9973H40.9003H40.8031H40.7057H40.6081H40.5104H40.4125H40.3145H40.2163H40.1179H40.0194H39.9208H39.8219H39.723H39.6239H39.5246H39.4252H39.3257H39.226H39.1262H39.0263H38.9262H38.826H38.7256H38.6252H38.5246H38.4239H38.323H38.2221H38.121H38.0198H37.9185H37.8171H37.7155H37.6139H37.5121H37.4103H37.3083H37.2063H37.1041H37.0018H36.8995H36.7971H36.6945H36.5919H36.4892H36.3864H36.2835H36.1805H36.0775H35.9743H35.8711H35.7679H35.6645H35.5611H35.4576H35.354H35.2504H35.1467H35.043H34.9392H34.8353H34.7314H34.6274H34.5234H34.4193H34.3152H34.211H34.1068H34.0025H33.8982H33.7938H33.6895H33.5851H33.4806H33.3761H33.2716H33.1671H33.0625H32.9579H32.8533H32.7487H32.644H32.5394H32.4347H32.33H32.2253H32.1206H32.0159H31.9111H31.8064H31.7017H31.597H31.4922H31.3875H31.2828H31.1781H31.0734H30.9687H30.864H30.7594H30.6547H30.5501H30.4455H30.3409H30.2364H30.1319H30.0274H29.9229H29.8185H29.7141H29.6097H29.5054H29.4011H29.2969H29.1927H29.0885H28.9844H28.8804H28.7764H28.6724H28.5685H28.4647H28.3609H28.2572H28.1536H28.05H27.9464H27.843H27.7396H27.6363H27.5331H27.4299H27.3268H27.2238H27.1209H27.0181H26.9153H26.8126H26.7101H26.6076H26.5052H26.4029H26.3007H26.1986H26.0966H25.9947H25.8929H25.7912H25.6896H25.5881H25.4868H25.3855H25.2844H25.1834H25.0825H24.9817H24.8811H24.7806H24.6802H24.5799H24.4797H24.3797H24.2799H24.1801H24.0805H23.9811H23.8818H23.7826H23.6836H23.5847H23.486H23.3874H23.289H23.1907H23.0926H22.9946H22.8968H22.7992H22.7018H22.6045H22.5073H22.4104H22.3136H22.217H22.1205H22.0243H21.9282H21.8323H21.7366H21.6411H21.5457H21.4506H21.3556H21.2608H21.1663H21.0719H20.9777H20.8837H20.7899H20.6964H20.603H20.5098H20.4169H20.3242H20.2316H20.1393H20.0472H19.9554H19.8637H19.7723H19.6811H19.5901H19.4994H19.4089H19.3186H19.2285H19.1387H19.0491H18.9598H18.8707H18.7819H18.6933H18.6049H18.5168H18.4289H18.3413H18.254H18.1669H18.0801H17.9935H17.9072H17.8212H17.7354H17.6499H17.5646H17.4797H17.395H17.3106H17.2264H17.1426H17.059H16.9757H16.8927H16.81H16.7275H16.6454H16.5635H16.482H16.4007H16.3198H16.2391H16.1588H16.0787H15.999H15.9195H15.8404H15.7616H15.6831H15.6049H15.527H15.4495H15.3722H15.2953H15.2188H15.1425H15.0666H14.991H14.9157H14.8408H14.7662H14.6919H14.618H14.5444H14.4712H14.3983H14.3258H14.2536H14.1818H14.1103H14.0392H13.9684H13.898H13.8279H13.7582H13.6889H13.62H13.5514H13.4832H13.4153H13.3478H13.2807H13.214H13.1477H13.0817H13.0161H12.9509H12.8861H12.8217H12.7577H12.6941H12.6308H12.568H12.5056H12.4435H12.3819H12.3206H12.2598H12.1994H12.1394H12.0798H12.0206H11.9618H11.9035H11.8455H11.788H11.7309H11.6743H11.618H11.5622H11.5068H11.4519H11.3974H11.3433H11.2897H11.2365H11.1837H11.1314H11.0795H11.0281H10.9771H10.9266H10.8766H10.8269H10.7778H10.7291H10.6809H10.6331H10.5858H10.5389H10.4926H10.4467H10.4012H10.3563H10.3118H10.2678H10.2243H10.1812H10.1387H10.0966H10.055H10.0139H9.97328H9.93317H9.89355H9.85442H9.8158H9.77767H9.74005H9.70293H9.66631H9.63021H9.59461H9.55952H9.52495H9.4909H9.45736H9.42434H9.39184H9.35986H9.32841H9.29749H9.26709H9.23722H9.20789H9.17909H9.15083H9.1231H9.09592H9.06927H9.04317H9.01762H8.99261H8.96815H8.94425H8.92089H8.8981H8.87585H8.85417H8.83305H8.81249H8.79249H8.77306H8.7542H8.73591H8.71819H8.70104H8.68447H8.66848H8.65307H8.63824H8.62399H8.61032H8.59725H8.58476H8.57286H8.56156H8.55085H8.54074H8.53122H8.52231H8.514H8.50629H8.49918H8.49269H8.4868H8.48153H8.47687H8.47283H8.4694H8.46659H8.4644H8.46283H8.46189C8.46169 30.7727 8.46158 30.7727 8.46158 31.2727V30.7727Z" stroke="#8ECAE6"/>
</svg>
