<svg width="50" height="50" viewBox="0 0 50 50" fill="none" xmlns="http://www.w3.org/2000/svg">
<path fill-rule="evenodd" clip-rule="evenodd" d="M6.25004 25C6.25004 14.6447 14.6447 6.25004 25 6.25004C35.3554 6.25004 43.75 14.6447 43.75 25C43.75 30.6705 41.2329 35.7531 37.255 39.1913C36.1063 33.4734 31.0561 29.1667 25 29.1667C18.944 29.1667 13.8938 33.4734 12.7451 39.1913C8.76722 35.7531 6.25004 30.6705 6.25004 25ZM16.6667 41.801C19.177 43.0486 22.0066 43.75 25 43.75C27.9935 43.75 30.823 43.0486 33.3334 41.801V41.6667C33.3334 37.0643 29.6024 33.3334 25 33.3334C20.3977 33.3334 16.6667 37.0643 16.6667 41.6667V41.801ZM25 2.08337C12.3435 2.08337 2.08337 12.3435 2.08337 25C2.08337 37.6566 12.3435 47.9167 25 47.9167C37.6566 47.9167 47.9167 37.6566 47.9167 25C47.9167 12.3435 37.6566 2.08337 25 2.08337ZM25 22.9167C22.6989 22.9167 20.8334 21.0512 20.8334 18.75C20.8334 16.4489 22.6989 14.5834 25 14.5834C27.3012 14.5834 29.1667 16.4489 29.1667 18.75C29.1667 21.0512 27.3012 22.9167 25 22.9167ZM16.6667 18.75C16.6667 23.3524 20.3977 27.0834 25 27.0834C29.6024 27.0834 33.3334 23.3524 33.3334 18.75C33.3334 14.1477 29.6024 10.4167 25 10.4167C20.3977 10.4167 16.6667 14.1477 16.6667 18.75Z" fill="#262626"/>
</svg>
