<svg width="50" height="50" viewBox="0 0 50 50" fill="none" xmlns="http://www.w3.org/2000/svg">
<path fill-rule="evenodd" clip-rule="evenodd" d="M10.6245 4.16826C12.2513 2.5401 14.8901 2.53936 16.5178 4.16662L24.211 11.8576C25.8382 13.4843 25.8389 16.1218 24.2127 17.7494L21.4859 20.4784L30.349 29.3402L33.074 26.6129C34.7009 24.9847 37.3397 24.984 38.9674 26.6112L45.8334 33.4752C47.4605 35.1018 47.4612 37.7394 45.835 39.367L41.2931 43.9127C38.63 46.578 34.5303 47.1728 31.2195 45.3742C19.9749 39.2656 10.738 30.0299 4.62656 18.787C2.82785 15.4781 3.41954 11.3792 6.08195 8.71455L10.6245 4.16826ZM21.2652 14.8043L13.572 7.11332L9.02945 11.6596C7.67185 13.0183 7.36976 15.1091 8.28733 16.7971C14.0147 27.3333 22.671 35.9884 33.2085 41.7129C34.8969 42.6301 36.9875 42.3268 38.3456 40.9676L42.8875 36.4219L36.0215 29.5579L30.3505 35.2337L15.5943 20.4799L21.2652 14.8043Z" fill="#262626"/>
</svg>
